<mxfile host="app.diagrams.net" modified="2022-02-19T07:32:54.628Z" agent="5.0 (Macintosh; Intel Mac OS X 10_15_7) AppleWebKit/537.36 (KHTML, like Gecko) Chrome/98.0.4758.80 Safari/537.36" etag="jb8Gbzn1ivu9p3baPwNL" version="14.7.7" type="github">
  <diagram id="UGL44fLGLIGrJesT4FaX" name="第 1 页">
    <mxGraphModel dx="946" dy="621" grid="1" gridSize="10" guides="1" tooltips="1" connect="1" arrows="1" fold="1" page="1" pageScale="1" pageWidth="1169" pageHeight="827" math="0" shadow="0">
      <root>
        <mxCell id="0" />
        <mxCell id="1" parent="0" />
        <mxCell id="ZXC2USjczNBYVOhyO7FC-51" value="接口 I" style="swimlane;glass=0;startSize=40;fontSize=15;fillColor=#f5f5f5;strokeColor=#666666;fontColor=#333333;" vertex="1" parent="1">
          <mxGeometry x="80" y="220" width="170" height="320" as="geometry" />
        </mxCell>
        <mxCell id="ZXC2USjczNBYVOhyO7FC-52" value="&lt;font style=&quot;font-size: 15px&quot;&gt;捕食&lt;/font&gt;" style="rounded=1;whiteSpace=wrap;html=1;glass=0;fillColor=#ffe6cc;strokeColor=#d79b00;" vertex="1" parent="ZXC2USjczNBYVOhyO7FC-51">
          <mxGeometry x="10" y="60" width="150" height="40" as="geometry" />
        </mxCell>
        <mxCell id="ZXC2USjczNBYVOhyO7FC-56" value="&lt;span style=&quot;font-size: 15px&quot;&gt;飞翔&lt;/span&gt;" style="rounded=1;whiteSpace=wrap;html=1;glass=0;fillColor=#d5e8d4;strokeColor=#82b366;" vertex="1" parent="ZXC2USjczNBYVOhyO7FC-51">
          <mxGeometry x="10" y="260" width="150" height="40" as="geometry" />
        </mxCell>
        <mxCell id="ZXC2USjczNBYVOhyO7FC-55" value="&lt;span style=&quot;font-size: 15px&quot;&gt;滑翔&lt;/span&gt;" style="rounded=1;whiteSpace=wrap;html=1;glass=0;fillColor=#d5e8d4;strokeColor=#82b366;" vertex="1" parent="ZXC2USjczNBYVOhyO7FC-51">
          <mxGeometry x="10" y="210" width="150" height="40" as="geometry" />
        </mxCell>
        <mxCell id="ZXC2USjczNBYVOhyO7FC-54" value="&lt;span style=&quot;font-size: 15px&quot;&gt;奔跑&lt;/span&gt;" style="rounded=1;whiteSpace=wrap;html=1;glass=0;fillColor=#dae8fc;strokeColor=#6c8ebf;" vertex="1" parent="ZXC2USjczNBYVOhyO7FC-51">
          <mxGeometry x="10" y="160" width="150" height="40" as="geometry" />
        </mxCell>
        <mxCell id="ZXC2USjczNBYVOhyO7FC-53" value="&lt;span style=&quot;font-size: 15px&quot;&gt;行走&lt;/span&gt;" style="rounded=1;whiteSpace=wrap;html=1;glass=0;fillColor=#dae8fc;strokeColor=#6c8ebf;" vertex="1" parent="ZXC2USjczNBYVOhyO7FC-51">
          <mxGeometry x="10" y="110" width="150" height="40" as="geometry" />
        </mxCell>
        <mxCell id="ZXC2USjczNBYVOhyO7FC-57" value="&lt;font style=&quot;font-size: 20px&quot;&gt;犬科&lt;/font&gt;" style="rounded=0;whiteSpace=wrap;html=1;glass=0;fillColor=#dae8fc;strokeColor=#6c8ebf;" vertex="1" parent="1">
          <mxGeometry x="392" y="300" width="120" height="60" as="geometry" />
        </mxCell>
        <mxCell id="ZXC2USjczNBYVOhyO7FC-58" value="&lt;font&gt;&lt;font style=&quot;font-size: 20px&quot;&gt;鸟类&lt;/font&gt;&lt;br&gt;&lt;/font&gt;" style="rounded=0;whiteSpace=wrap;html=1;glass=0;fillColor=#d5e8d4;strokeColor=#82b366;" vertex="1" parent="1">
          <mxGeometry x="392" y="400" width="120" height="60" as="geometry" />
        </mxCell>
        <mxCell id="ZXC2USjczNBYVOhyO7FC-59" value="宠物狗类" style="swimlane;glass=0;startSize=40;fillColor=#dae8fc;strokeColor=#6c8ebf;fontSize=15;" vertex="1" parent="1">
          <mxGeometry x="650" y="40" width="170" height="320" as="geometry" />
        </mxCell>
        <mxCell id="ZXC2USjczNBYVOhyO7FC-60" value="&lt;span style=&quot;font-size: 15px&quot;&gt;捕食&lt;/span&gt;" style="rounded=1;whiteSpace=wrap;html=1;glass=0;fillColor=#ffe6cc;strokeColor=#d79b00;" vertex="1" parent="ZXC2USjczNBYVOhyO7FC-59">
          <mxGeometry x="10" y="60" width="150" height="40" as="geometry" />
        </mxCell>
        <mxCell id="ZXC2USjczNBYVOhyO7FC-61" value="&lt;span style=&quot;font-size: 15px&quot;&gt;飞翔&lt;/span&gt;" style="rounded=1;whiteSpace=wrap;html=1;glass=0;fillColor=#d5e8d4;strokeColor=#82b366;" vertex="1" parent="ZXC2USjczNBYVOhyO7FC-59">
          <mxGeometry x="10" y="260" width="150" height="40" as="geometry" />
        </mxCell>
        <mxCell id="ZXC2USjczNBYVOhyO7FC-62" value="&lt;span style=&quot;font-size: 15px&quot;&gt;滑翔&lt;/span&gt;" style="rounded=1;whiteSpace=wrap;html=1;glass=0;fillColor=#d5e8d4;strokeColor=#82b366;" vertex="1" parent="ZXC2USjczNBYVOhyO7FC-59">
          <mxGeometry x="10" y="210" width="150" height="40" as="geometry" />
        </mxCell>
        <mxCell id="ZXC2USjczNBYVOhyO7FC-63" value="&lt;span style=&quot;font-size: 15px&quot;&gt;奔跑&lt;/span&gt;" style="rounded=1;whiteSpace=wrap;html=1;glass=0;fillColor=#dae8fc;strokeColor=#6c8ebf;" vertex="1" parent="ZXC2USjczNBYVOhyO7FC-59">
          <mxGeometry x="10" y="160" width="150" height="40" as="geometry" />
        </mxCell>
        <mxCell id="ZXC2USjczNBYVOhyO7FC-64" value="&lt;span style=&quot;font-size: 15px&quot;&gt;行走&lt;/span&gt;" style="rounded=1;whiteSpace=wrap;html=1;glass=0;fillColor=#dae8fc;strokeColor=#6c8ebf;" vertex="1" parent="ZXC2USjczNBYVOhyO7FC-59">
          <mxGeometry x="10" y="110" width="150" height="40" as="geometry" />
        </mxCell>
        <mxCell id="ZXC2USjczNBYVOhyO7FC-75" value="" style="endArrow=classic;startArrow=classic;html=1;fontSize=15;entryX=0;entryY=0.5;entryDx=0;entryDy=0;exitX=0;exitY=0.75;exitDx=0;exitDy=0;dashed=1;dashPattern=1 1;strokeWidth=3;strokeColor=#67AB9F;" edge="1" parent="ZXC2USjczNBYVOhyO7FC-59" source="ZXC2USjczNBYVOhyO7FC-61" target="ZXC2USjczNBYVOhyO7FC-62">
          <mxGeometry width="50" height="50" relative="1" as="geometry">
            <mxPoint x="-60" y="300" as="sourcePoint" />
            <mxPoint x="-10" y="250" as="targetPoint" />
            <Array as="points">
              <mxPoint x="-60" y="220" />
            </Array>
          </mxGeometry>
        </mxCell>
        <mxCell id="ZXC2USjczNBYVOhyO7FC-65" value="鸽子类" style="swimlane;glass=0;startSize=40;fillColor=#d5e8d4;strokeColor=#82b366;fontSize=15;" vertex="1" parent="1">
          <mxGeometry x="650" y="400" width="170" height="320" as="geometry" />
        </mxCell>
        <mxCell id="ZXC2USjczNBYVOhyO7FC-66" value="&lt;span style=&quot;font-size: 15px&quot;&gt;捕食&lt;/span&gt;" style="rounded=1;whiteSpace=wrap;html=1;glass=0;fillColor=#ffe6cc;strokeColor=#d79b00;" vertex="1" parent="ZXC2USjczNBYVOhyO7FC-65">
          <mxGeometry x="10" y="60" width="150" height="40" as="geometry" />
        </mxCell>
        <mxCell id="ZXC2USjczNBYVOhyO7FC-67" value="&lt;span style=&quot;font-size: 15px&quot;&gt;飞翔&lt;/span&gt;" style="rounded=1;whiteSpace=wrap;html=1;glass=0;fillColor=#d5e8d4;strokeColor=#82b366;" vertex="1" parent="ZXC2USjczNBYVOhyO7FC-65">
          <mxGeometry x="10" y="260" width="150" height="40" as="geometry" />
        </mxCell>
        <mxCell id="ZXC2USjczNBYVOhyO7FC-68" value="&lt;span style=&quot;font-size: 15px&quot;&gt;滑翔&lt;/span&gt;" style="rounded=1;whiteSpace=wrap;html=1;glass=0;fillColor=#d5e8d4;strokeColor=#82b366;" vertex="1" parent="ZXC2USjczNBYVOhyO7FC-65">
          <mxGeometry x="10" y="210" width="150" height="40" as="geometry" />
        </mxCell>
        <mxCell id="ZXC2USjczNBYVOhyO7FC-69" value="&lt;span style=&quot;font-size: 15px&quot;&gt;奔跑&lt;/span&gt;" style="rounded=1;whiteSpace=wrap;html=1;glass=0;fillColor=#dae8fc;strokeColor=#6c8ebf;" vertex="1" parent="ZXC2USjczNBYVOhyO7FC-65">
          <mxGeometry x="10" y="160" width="150" height="40" as="geometry" />
        </mxCell>
        <mxCell id="ZXC2USjczNBYVOhyO7FC-70" value="&lt;span style=&quot;font-size: 15px&quot;&gt;行走&lt;/span&gt;" style="rounded=1;whiteSpace=wrap;html=1;glass=0;fillColor=#dae8fc;strokeColor=#6c8ebf;" vertex="1" parent="ZXC2USjczNBYVOhyO7FC-65">
          <mxGeometry x="10" y="110" width="150" height="40" as="geometry" />
        </mxCell>
        <mxCell id="ZXC2USjczNBYVOhyO7FC-77" value="" style="endArrow=classic;startArrow=classic;html=1;dashed=1;dashPattern=1 1;fontSize=15;strokeColor=#67AB9F;strokeWidth=3;entryX=0;entryY=0.5;entryDx=0;entryDy=0;exitX=0;exitY=0.5;exitDx=0;exitDy=0;" edge="1" parent="ZXC2USjczNBYVOhyO7FC-65" source="ZXC2USjczNBYVOhyO7FC-69" target="ZXC2USjczNBYVOhyO7FC-70">
          <mxGeometry width="50" height="50" relative="1" as="geometry">
            <mxPoint x="-80" y="150" as="sourcePoint" />
            <mxPoint x="-10" y="50" as="targetPoint" />
            <Array as="points">
              <mxPoint x="-80" y="160" />
            </Array>
          </mxGeometry>
        </mxCell>
        <mxCell id="ZXC2USjczNBYVOhyO7FC-76" value="多余的" style="text;html=1;strokeColor=none;fillColor=none;align=center;verticalAlign=middle;whiteSpace=wrap;rounded=0;glass=0;fontSize=15;" vertex="1" parent="1">
          <mxGeometry x="540" y="250" width="50" height="20" as="geometry" />
        </mxCell>
        <mxCell id="ZXC2USjczNBYVOhyO7FC-78" value="多余的" style="text;html=1;strokeColor=none;fillColor=none;align=center;verticalAlign=middle;whiteSpace=wrap;rounded=0;glass=0;fontSize=15;" vertex="1" parent="1">
          <mxGeometry x="520" y="550" width="50" height="20" as="geometry" />
        </mxCell>
        <mxCell id="ZXC2USjczNBYVOhyO7FC-79" value="" style="endArrow=classic;html=1;dashed=1;dashPattern=1 1;fontSize=15;strokeColor=#67AB9F;strokeWidth=3;exitX=0;exitY=0.5;exitDx=0;exitDy=0;" edge="1" parent="1" source="ZXC2USjczNBYVOhyO7FC-57">
          <mxGeometry width="50" height="50" relative="1" as="geometry">
            <mxPoint x="470" y="390" as="sourcePoint" />
            <mxPoint x="250" y="330" as="targetPoint" />
          </mxGeometry>
        </mxCell>
        <mxCell id="ZXC2USjczNBYVOhyO7FC-80" value="" style="endArrow=classic;html=1;dashed=1;dashPattern=1 1;fontSize=15;strokeColor=#67AB9F;strokeWidth=3;exitX=0;exitY=0.5;exitDx=0;exitDy=0;" edge="1" parent="1" source="ZXC2USjczNBYVOhyO7FC-58">
          <mxGeometry width="50" height="50" relative="1" as="geometry">
            <mxPoint x="470" y="390" as="sourcePoint" />
            <mxPoint x="250" y="430" as="targetPoint" />
          </mxGeometry>
        </mxCell>
        <mxCell id="ZXC2USjczNBYVOhyO7FC-81" value="" style="endArrow=classic;html=1;dashed=1;dashPattern=1 1;fontSize=15;strokeColor=#67AB9F;strokeWidth=3;entryX=1;entryY=0.5;entryDx=0;entryDy=0;" edge="1" parent="1" target="ZXC2USjczNBYVOhyO7FC-57">
          <mxGeometry width="50" height="50" relative="1" as="geometry">
            <mxPoint x="650" y="340" as="sourcePoint" />
            <mxPoint x="520" y="340" as="targetPoint" />
          </mxGeometry>
        </mxCell>
        <mxCell id="ZXC2USjczNBYVOhyO7FC-82" value="" style="endArrow=classic;html=1;dashed=1;dashPattern=1 1;fontSize=15;strokeColor=#67AB9F;strokeWidth=3;exitX=0;exitY=0.119;exitDx=0;exitDy=0;exitPerimeter=0;entryX=1;entryY=0.5;entryDx=0;entryDy=0;" edge="1" parent="1" source="ZXC2USjczNBYVOhyO7FC-65" target="ZXC2USjczNBYVOhyO7FC-58">
          <mxGeometry width="50" height="50" relative="1" as="geometry">
            <mxPoint x="470" y="390" as="sourcePoint" />
            <mxPoint x="520" y="340" as="targetPoint" />
          </mxGeometry>
        </mxCell>
      </root>
    </mxGraphModel>
  </diagram>
</mxfile>
